{
.appVersion = "3151";
.formatVersion = 3;
customParameters = (
{
name = vendorID;
value = ADBO;
},
{
name = panose;
value = (
2,
11,
2,
0,
0,
0,
0,
0,
0,
0
);
},
{
name = unicodeRanges;
value = (
0,
1,
7,
29,
36,
42,
43,
44,
45,
48,
49,
50,
51,
52,
54,
55,
57,
59,
61,
65,
66,
68
);
},
{
name = codePageRanges;
value = (
"1252",
"1250",
"1251",
"1258",
"932",
"936",
"bit 29",
"bit 30"
);
},
{
name = fsType;
value = (
);
}
);
date = "2021-04-29 08:43:11 +0000";
familyName = "Yaku Han JP s";
featurePrefixes = (
{
automatic = 1;
code = "languagesystem DFLT dflt;
";
name = Languagesystems;
}
);
features = (
{
automatic = 1;
code = "feature vert;
feature vrt2;
";
tag = aalt;
},
{
code = "sub blacklenticularbracketleft by blacklenticularbracketleft.vert;
sub blacklenticularbracketright by blacklenticularbracketright.vert;
sub cornerbracketleft by cornerbracketleft.vert;
sub cornerbracketright by cornerbracketright.vert;
sub dblanglebracketleft by dblanglebracketleft.vert;
sub dblanglebracketright by dblanglebracketright.vert;
sub tortoiseshellbracketleft by tortoiseshellbracketleft.vert;
sub tortoiseshellbracketright by tortoiseshellbracketright.vert;
sub whitecornerbracketleft by whitecornerbracketleft.vert;
sub whitecornerbracketright by whitecornerbracketright.vert;
sub whitelenticularbracketleft by whitelenticularbracketleft.vert;
sub whitelenticularbracketright by whitelenticularbracketright.vert;
sub braceleft.full by braceleft.full.vert;
sub braceright.full by braceright.full.vert;
sub bracketleft.full by bracketleft.full.vert;
sub bracketright.full by bracketright.full.vert;
sub parenleft.full by parenleft.full.vert;
sub parenright.full by parenright.full.vert;
sub angleLeft by anglebracketleft.vert;
sub angleRight by anglebracketright.vert;";
tag = vert;
},
{
automatic = 1;
code = "sub blacklenticularbracketleft by blacklenticularbracketleft.vert;
sub blacklenticularbracketright by blacklenticularbracketright.vert;

glyphs = (
{
glyphname = .notdef;
layers = (
{
layerId = m01;
shapes = (
{
closed = 1;
nodes = (
(900,880,l),
(100,880,l),
(100,-120,l),
(900,-120,l)
);
},
{
closed = 1;
nodes = (
(818,830,l),
(500,421,l),
(182,830,l)
);
},
{
closed = 1;
nodes = (
(850,-29,l),
(532,380,l),
(850,789,l)
);
},
{
closed = 1;
nodes = (
(818,-70,l),
(182,-70,l),
(500,339,l)
);
},
{
closed = 1;
nodes = (
(150,-29,l),
(150,789,l),
(468,380,l)
);
}
);
vertWidth = 1000;
width = 1000;
}
);
note = ".notdef";
},
{
glyphname = angleLeft;
lastChange = "2023-08-27 13:52:05 +0000";
layers = (
{
layerId = m01;
shapes = (
{
closed = 1;
nodes = (
(535,825,l),
(508,840,l),
(200,380,l),
(508,-80,l),
(535,-65,l),
(237,380,l)
);
}
);
vertWidth = 1000;
width = 585;
}
);
note = uni2329;
unicode = (9001,12296);
},
{
glyphname = angleRight;
lastChange = "2023-08-27 13:52:16 +0000";
layers = (
{
layerId = m01;
shapes = (
{
closed = 1;
nodes = (
(385,380,l),
(77,840,l),
(50,825,l),
(348,380,l),
(50,-65,l),
(77,-80,l)
);
}
);
vertWidth = 1000;
width = 585;
}
);
note = uni3009;
unicode = (9002,12297);
},
{
glyphname = blacklenticularbracketleft;
lastChange = "2023-08-27 13:52:05 +0000";
layers = (
{
layerId = m01;
shapes = (
{
closed = 1;
nodes = (
(200,840,l),
(200,-80,l),
(488,-80,l),
(488,-75,l),
(434,-29,o),
(344,107,o),
(290,280,o),
(290,380,qs),
(290,480,o),
(344,653,o),
(434,790,o),
(488,835,q),
(488,840,l)
);
}
);
vertWidth = 1000;
width = 528;
}
);
note = uni3010;
unicode = 12304;
},
{
glyphname = blacklenticularbracketright;
lastChange = "2023-08-27 13:52:16 +0000";
layers = (
{
layerId = m01;
shapes = (
{
closed = 1;
nodes = (
(40,840,l),
(40,835,l),
(95,790,o),
(184,653,o),
(238,480,o),
(238,380,qs),
(238,280,o),
(184,107,o),
(95,-29,o),
(40,-75,q),
(40,-80,l),
(328,-80,l),
(328,840,l)
);
}
);
vertWidth = 1000;
width = 528;
}
);
note = uni3011;
unicode = 12305;
},
{
glyphname = braceleft.full;
lastChange = "2023-08-27 13:52:05 +0000";
layers = (
{
layerId = m01;
shapes = (
{
closed = 1;
nodes = (
(438,-68,l),
(403,-68,ls),
(351,-68,o),
(316,-8,o),
(316,50,qs),
(316,104,o),
(323,204,o),
(323,265,qs),
(323,312,o),
(301,368,o),
(269,378,q),
(269,382,l),
(301,392,o),
(323,449,o),
(323,495,qs),
(323,556,o),
(316,655,o),
(316,710,qs),
(316,769,o),
(351,828,o),
(403,828,qs),
(438,828,l),
(438,854,l),
(404,854,ls),
(345,854,o),
(285,797,o),
(285,714,qs),
(285,674,o),
(289,597,o),
(294,522,o),
(294,482,qs),
(294,460,o),
(279,420,o),
(239,394,o),
(200,394,q),
(200,366,l),
(239,366,o),
(279,340,o),
(294,300,o),
(294,278,qs),
(294,240,o),
(289,164,o),
(285,87,o),
(285,46,qs),
(285,-36,o),
(345,-94,o),
(404,-94,qs),
(438,-94,l)
);
}
);
vertWidth = 1000;
width = 478;
}
);
note = uniFF5B;
unicode = 65371;
},
{
glyphname = braceright.full;
lastChange = "2023-08-27 13:52:16 +0000";
layers = (
{
layerId = m01;
shapes = (
{
closed = 1;
nodes = (
(40,-68,l),
(75,-68,ls),
(127,-68,o),
(162,-8,o),
(162,50,qs),
(162,104,o),
(155,204,o),
(155,265,qs),
(155,312,o),
(177,368,o),
(209,378,q),
(209,382,l),
(177,392,o),
(155,449,o),
(155,495,qs),
(155,556,o),
(162,655,o),
(162,710,qs),
(162,769,o),
(127,828,o),
(75,828,qs),
(40,828,l),
(40,854,l),
(74,854,ls),
(133,854,o),
(193,797,o),
(193,714,qs),
(193,674,o),
(188,597,o),
(184,522,o),
(184,482,qs),
(184,460,o),
(199,420,o),
(240,394,o),
(278,394,q),
(278,366,l),
(240,366,o),
(199,340,o),
(184,300,o),
(184,278,qs),
(184,240,o),
(188,164,o),
(193,87,o),
(193,46,qs),
(193,-36,o),
(133,-94,o),
(74,-94,qs),
(40,-94,l)
);
}
);
vertWidth = 1000;
width = 478;
}
);
note = uniFF5D;
unicode = 65373;
},
{
glyphname = cornerbracketleft;
lastChange = "2023-08-27 13:52:05 +0000";
layers = (
{
layerId = m01;
shapes = (
{
closed = 1;
nodes = (
(230,186,l),
(230,810,l),
(500,810,l),
(500,840,l),
(200,840,l),
(200,186,l)
);
}
);
vertWidth = 1000;
width = 540;
}
);
note = uni300C;
unicode = 12300;
},
{
glyphname = cornerbracketright;
lastChange = "2023-08-27 13:52:16 +0000";
layers = (
{
layerId = m01;
shapes = (
{
closed = 1;
nodes = (
(310,574,l),
(310,-50,l),
(40,-50,l),
(40,-80,l),
(340,-80,l),
(340,574,l)
);
}
);
vertWidth = 1000;
width = 540;
}
);
note = uni300D;
unicode = 12301;
},
{
glyphname = dblanglebracketleft;
lastChange = "2023-08-27 13:52:05 +0000";
layers = (
{
layerId = m01;
shapes = (
{
closed = 1;
nodes = (
(471,830,l),
(446,840,l),
(200,380,l),
(446,-80,l),
(471,-70,l),
(230,380,l)
);
},
{
closed = 1;
nodes = (
(614,830,l),
(589,840,l),
(343,380,l),
(589,-80,l),
(614,-70,l),
(373,380,l)
);
}
);
vertWidth = 1000;
width = 660;
}
);
note = uni300A;
unicode = 12298;
},
{
glyphname = dblanglebracketright;
lastChange = "2023-08-27 13:52:16 +0000";
layers = (
{
layerId = m01;
shapes = (
{
closed = 1;
nodes = (
(459,380,l),
(213,840,l),
(188,830,l),
(429,380,l),
(188,-70,l),
(213,-80,l)
);
},
{
closed = 1;
nodes = (
(316,380,l),
(70,840,l),
(45,830,l),
(286,380,l),
(45,-70,l),
(70,-80,l)
);
}
);
vertWidth = 1000;
width = 659;
}
);
note = uni300B;
unicode = 12299;
},
{
glyphname = tortoiseshellbracketleft;
lastChange = "2023-08-27 13:52:05 +0000";
layers = (
{
layerId = m01;
shapes = (
{
closed = 1;
nodes = (
(416,-66,l),
(231,52,l),
(231,708,l),
(416,826,l),
(398,851,l),
(200,722,l),
(200,38,l),
(398,-91,l)
);
}
);
vertWidth = 1000;
width = 468;
}
);
note = uni3014;
unicode = 12308;
},
{
glyphname = tortoiseshellbracketright;
lastChange = "2023-08-27 13:52:16 +0000";
layers = (
{
layerId = m01;
shapes = (
{
closed = 1;
nodes = (
(52,-66,l),
(237,52,l),
(237,708,l),
(52,826,l),
(70,851,l),
(268,722,l),
(268,38,l),
(70,-91,l)
);
}
);
vertWidth = 1000;
width = 468;
}
);
note = uni3015;
unicode = 12309;
},
{
glyphname = whitecornerbracketleft;
lastChange = "2023-08-27 13:52:05 +0000";
layers = (
{
layerId = m01;
shapes = (
{
closed = 1;
nodes = (
(561,840,l),
(200,840,l),
(200,176,l),
(349,176,l),
(349,706,l),
(561,706,l)
);
},
{
closed = 1;
nodes = (
(539,728,l),
(327,728,l),
(327,198,l),
(222,198,l),
(222,818,l),
(539,818,l)
);
}
);
vertWidth = 1000;
width = 601;
}
);
note = uni300E;
unicode = 12302;
},
{
glyphname = whitecornerbracketright;
lastChange = "2023-08-27 13:52:16 +0000";
layers = (
{
layerId = m01;
shapes = (
{
closed = 1;
nodes = (
(40,-80,l),
(401,-80,l),
(401,584,l),
(252,584,l),
(252,54,l),
(40,54,l)
);
},
{
closed = 1;
nodes = (
(62,32,l),
(274,32,l),
(274,562,l),
(379,562,l),
(379,-58,l),
(62,-58,l)
);
}
);
vertWidth = 1000;
width = 601;
}
);
note = uni300F;
unicode = 12303;
},
{
glyphname = whitelenticularbracketleft;
lastChange = "2023-08-27 13:52:05 +0000";
layers = (
{
layerId = m01;
shapes = (
{
closed = 1;
nodes = (
(464,-27,o),
(346,97,o),
(280,271,o),
(280,380,qs),
(280,490,o),
(346,663,o),
(464,788,o),
(543,823,q),
(543,840,l),
(200,840,l),
(200,-80,l),
(543,-80,l),
(543,-63,l)
);
},
{
closed = 1;
nodes = (
(222,818,l),
(484,818,l),
(448,796,o),
(369,723,o),
(301,617,o),
(258,473,o),
(258,380,qs),
(258,287,o),
(301,143,o),
(369,37,o),
(448,-36,o),
(484,-58,q),
(222,-58,l)
);
}
);
vertWidth = 1000;
width = 583;
}
);
note = uni3016;
unicode = 12310;
},
{
glyphname = whitelenticularbracketright;
lastChange = "2023-08-27 13:52:16 +0000";
layers = (
{
layerId = m01;
shapes = (
{
closed = 1;
nodes = (
(383,-80,l),
(383,840,l),
(40,840,l),
(40,823,l),
(119,788,o),
(237,663,o),
(303,490,o),
(303,380,qs),
(303,271,o),
(237,97,o),
(119,-27,o),
(40,-63,q),
(40,-80,l)
);
},
{
closed = 1;
nodes = (
(135,-36,o),
(214,37,o),
(282,143,o),
(325,287,o),
(325,380,qs),
(325,473,o),
(282,617,o),
(214,723,o),
(135,796,o),
(99,818,q),
(361,818,l),
(361,-58,l),
(99,-58,l)
);
}
);
vertWidth = 1000;
width = 583;
}
);
note = uni3017;
unicode = 12311;
},
{
glyphname = anglebracketleft.vert;
lastChange = "2023-08-27 13:52:45 +0000";
layers = (
{
layerId = m01;
shapes = (
{
closed = 1;
nodes = (
(945,345,l),
(960,372,l),
(500,680,l),
(40,372,l),
(55,345,l),
(500,643,l)
);
}
);
vertWidth = 585;
width = 1000;
}
);
note = uniFE3F;
unicode = 65087;
},
{
glyphname = anglebracketright.vert;
lastChange = "2023-08-27 13:52:50 +0000";
layers = (
{
layerId = m01;
shapes = (
{
closed = 1;
nodes = (
(55,830,l),
(40,803,l),
(500,495,l),
(960,803,l),
(945,830,l),
(500,532,l)
);
}
);
vertWidth = 585;
width = 1000;
}
);
note = uniFE40;
unicode = 65088;
},
{
glyphname = blacklenticularbracketleft.vert;
lastChange = "2023-08-27 13:52:56 +0000";
layers = (
{
layerId = m01;
shapes = (
{
closed = 1;
nodes = (
(960,680,l),
(40,680,l),
(40,392,l),
(45,392,l),
(91,447,o),
(227,536,o),
(400,590,o),
(500,590,qs),
(600,590,o),
(773,536,o),
(910,447,o),
(955,392,q),
(960,392,l)
);
}
);
vertWidth = 528;
width = 1000;
}
);
note = uniFE3B;
unicode = 65083;
},
{
glyphname = blacklenticularbracketright.vert;
lastChange = "2023-08-27 13:53:01 +0000";
layers = (
{
layerId = m01;
shapes = (
{
closed = 1;
nodes = (
(960,840,l),
(955,840,l),
(910,786,o),
(773,696,o),
(600,642,o),
(500,642,qs),
(400,642,o),
(227,696,o),
(91,786,o),
(45,840,q),
(40,840,l),
(40,552,l),
(960,552,l)
);
}
);
vertWidth = 528;
width = 1000;
}
);
note = uniFE3C;
unicode = 65084;
},
{
glyphname = bracketleft.full;
lastChange = "2023-08-27 13:52:05 +0000";
layers = (
{
layerId = m01;
shapes = (
{
closed = 1;
nodes = (
(450,-80,l),
(450,-54,l),
(230,-54,l),
(230,814,l),
(450,814,l),
(450,840,l),
(200,840,l),
(200,-80,l)
);
}
);
vertWidth = 1000;
width = 490;
}
);
note = uniFF3B;
unicode = 65339;
},
{
glyphname = bracketright.full;
lastChange = "2023-08-27 13:52:16 +0000";
layers = (
{
layerId = m01;
shapes = (
{
closed = 1;
nodes = (
(40,-80,l),
(40,-54,l),
(260,-54,l),
(260,814,l),
(40,814,l),
(40,840,l),
(290,840,l),
(290,-80,l)
);
}
);
vertWidth = 1000;
width = 490;
}
);
note = uniFF3D;
unicode = 65341;
},
{
glyphname = cornerbracketleft.vert;
lastChange = "2023-08-27 13:53:06 +0000";
layers = (
{
layerId = m01;
shapes = (
{
closed = 1;
nodes = (
(255,650,l),
(945,650,l),
(945,380,l),
(975,380,l),
(975,680,l),
(255,680,l)
);
}
);
vertWidth = 540;
width = 1000;
}
);
note = uniFE41;
unicode = 65089;
},
{
glyphname = cornerbracketright.vert;
lastChange = "2023-08-27 13:53:12 +0000";
layers = (
{
layerId = m01;
shapes = (
{
closed = 1;
nodes = (
(745,570,l),
(55,570,l),
(55,840,l),
(25,840,l),
(25,540,l),
(745,540,l)
);
}
);
vertWidth = 540;
width = 1000;
}
);
note = uniFE42;
unicode = 65090;
},
{
glyphname = dblanglebracketleft.vert;
lastChange = "2023-08-27 13:53:17 +0000";
layers = (
{
layerId = m01;
shapes = (
{
closed = 1;
nodes = (
(950,409,l),
(960,434,l),
(500,680,l),
(40,434,l),
(50,409,l),
(500,650,l)
);
},
{
closed = 1;
nodes = (
(950,266,l),
(960,291,l),
(500,537,l),
(40,291,l),
(50,266,l),
(500,507,l)
);
}
);
vertWidth = 659;
width = 1000;
}
);
note = uniFE3D;
unicode = 65085;
},
{
glyphname = dblanglebracketright.vert;
lastChange = "2023-08-27 13:53:23 +0000";
layers = (
{
layerId = m01;
shapes = (
{
closed = 1;
nodes = (
(50,692,l),
(40,667,l),
(500,421,l),
(960,667,l),
(950,692,l),
(500,451,l)
);
},
{
closed = 1;
nodes = (
(50,835,l),
(40,810,l),
(500,564,l),
(960,810,l),
(950,835,l),
(500,594,l)
);
}
);
vertWidth = 659;
width = 1000;
}
);
note = uniFE3E;
unicode = 65086;
},
{
glyphname = parenleft.full;
lastChange = "2023-08-27 13:52:05 +0000";
layers = (
{
layerId = m01;
shapes = (
{
closed = 1;
nodes = (
(245,128,o),
(335,-22,o),
(401,-91,q),
(426,-72,l),
(361,-6,o),
(275,140,o),
(232,298,o),
(232,380,qs),
(232,463,o),
(275,620,o),
(361,767,o),
(426,832,q),
(401,851,l),
(335,783,o),
(245,632,o),
(200,469,o),
(200,380,qs),
(200,292,o)
);
}
);
vertWidth = 1000;
width = 473;
}
);
note = uniFF08;
unicode = 65288;
},
{
glyphname = parenright.full;
lastChange = "2023-08-27 13:52:16 +0000";
layers = (
{
layerId = m01;
shapes = (
{
closed = 1;
nodes = (
(228,632,o),
(138,783,o),
(72,851,q),
(47,832,l),
(112,767,o),
(198,620,o),
(241,463,o),
(241,380,qs),
(241,298,o),
(198,140,o),
(112,-6,o),
(47,-72,q),
(72,-91,l),
(138,-22,o),
(228,128,o),
(273,292,o),
(273,380,qs),
(273,469,o)
);
}
);
vertWidth = 1000;
width = 473;
}
);
note = uniFF09;
unicode = 65289;
},
{
glyphname = tortoiseshellbracketleft.vert;
lastChange = "2023-08-27 13:53:29 +0000";
layers = (
{
layerId = m01;
shapes = (
{
closed = 1;
nodes = (
(54,464,l),
(172,649,l),
(828,649,l),
(946,464,l),
(971,482,l),
(842,680,l),
(158,680,l),
(29,482,l)
);
}
);
vertWidth = 468;
width = 1000;
}
);
note = uniFE39;
unicode = 65081;
},
{
glyphname = tortoiseshellbracketright.vert;
lastChange = "2023-08-27 13:53:34 +0000";
layers = (
{
layerId = m01;
shapes = (
{
closed = 1;
nodes = (
(54,828,l),
(172,643,l),
(828,643,l),
(946,828,l),
(971,810,l),
(842,612,l),
(158,612,l),
(29,810,l)
);
}
);
vertWidth = 468;
width = 1000;
}
);
note = uniFE3A;
unicode = 65082;
},
{
glyphname = whitecornerbracketleft.vert;
lastChange = "2023-08-27 13:53:40 +0000";
layers = (
{
layerId = m01;
shapes = (
{
closed = 1;
nodes = (
(960,335,l),
(960,680,l),
(296,680,l),
(296,546,l),
(816,546,l),
(816,335,l)
);
},
{
closed = 1;
nodes = (
(838,357,l),
(838,568,l),
(318,568,l),
(318,658,l),
(938,658,l),
(938,357,l)
);
}
);
vertWidth = 585;
width = 1000;
}
);
note = uniFE43;
unicode = 65091;
},
{
glyphname = whitecornerbracketright.vert;
lastChange = "2023-08-27 13:53:46 +0000";
layers = (
{
layerId = m01;
shapes = (
{
closed = 1;
nodes = (
(40,840,l),
(40,495,l),
(704,495,l),
(704,629,l),
(184,629,l),
(184,840,l)
);
},
{
closed = 1;
nodes = (
(162,818,l),
(162,607,l),
(682,607,l),
(682,517,l),
(62,517,l),
(62,818,l)
);
}
);
vertWidth = 585;
width = 1000;
}
);
note = uniFE44;
unicode = 65092;
},
{
glyphname = whitelenticularbracketleft.vert;
lastChange = "2023-08-27 13:53:51 +0000";
layers = (
{
layerId = m01;
shapes = (
{
closed = 1;
nodes = (
(93,416,o),
(217,534,o),
(391,600,o),
(500,600,qs),
(610,600,o),
(783,534,o),
(908,416,o),
(943,337,q),
(960,337,l),
(960,680,l),
(40,680,l),
(40,337,l),
(57,337,l)
);
},
{
closed = 1;
nodes = (
(938,658,l),
(938,396,l),
(916,432,o),
(843,511,o),
(737,579,o),
(593,622,o),
(500,622,qs),
(407,622,o),
(263,579,o),
(157,511,o),
(84,432,o),
(62,396,q),
(62,658,l)
);
}
);
vertWidth = 583;
width = 1000;
}
);
note = uniFE17;
unicode = 65047;
},
{
glyphname = whitelenticularbracketright.vert;
lastChange = "2023-08-27 13:53:58 +0000";
layers = (
{
layerId = m01;
shapes = (
{
closed = 1;
nodes = (
(40,497,l),
(960,497,l),
(960,840,l),
(943,840,l),
(908,761,o),
(783,643,o),
(610,577,o),
(500,577,qs),
(391,577,o),
(217,643,o),
(93,761,o),
(57,840,q),
(40,840,l)
);
},
{
closed = 1;
nodes = (
(84,745,o),
(157,666,o),
(263,598,o),
(407,555,o),
(500,555,qs),
(593,555,o),
(737,598,o),
(843,666,o),
(916,745,o),
(938,781,q),
(938,519,l),
(62,519,l),
(62,781,l)
);
}
);
vertWidth = 583;
width = 1000;
}
);
note = uniFE18;
unicode = 65048;
},
{
glyphname = braceleft.full.vert;
lastChange = "2023-08-27 13:54:04 +0000";
layers = (
{
layerId = m01;
shapes = (
{
closed = 1;
nodes = (
(52,442,l),
(52,477,ls),
(52,529,o),
(112,564,o),
(170,564,qs),
(224,564,o),
(324,557,o),
(385,557,qs),
(432,557,o),
(488,579,o),
(498,611,q),
(502,611,l),
(512,579,o),
(569,557,o),
(615,557,qs),
(676,557,o),
(775,564,o),
(830,564,qs),
(889,564,o),
(948,529,o),
(948,477,qs),
(948,442,l),
(974,442,l),
(974,476,ls),
(974,535,o),
(917,595,o),
(834,595,qs),
(794,595,o),
(717,590,o),
(642,586,o),
(602,586,qs),
(580,586,o),
(540,601,o),
(514,642,o),
(514,680,q),
(486,680,l),
(486,642,o),
(460,601,o),
(420,586,o),
(398,586,qs),
(360,586,o),
(284,590,o),
(207,595,o),
(166,595,qs),
(84,595,o),
(26,535,o),
(26,476,qs),
(26,442,l)
);
}
);
vertWidth = 478;
width = 1000;
}
);
note = uniFE37;
unicode = 65079;
},
{
glyphname = braceright.full.vert;
lastChange = "2023-08-27 13:54:09 +0000";
layers = (
{
layerId = m01;
shapes = (
{
closed = 1;
nodes = (
(948,840,l),
(948,805,ls),
(948,753,o),
(889,718,o),
(830,718,qs),
(776,718,o),
(676,725,o),
(615,725,qs),
(569,725,o),
(512,703,o),
(502,671,q),
(498,671,l),
(488,703,o),
(432,725,o),
(385,725,qs),
(324,725,o),
(225,718,o),
(170,718,qs),
(111,718,o),
(52,753,o),
(52,805,qs),
(52,840,l),
(26,840,l),
(26,806,ls),
(26,747,o),
(84,687,o),
(166,687,qs),
(207,687,o),
(283,691,o),
(359,696,o),
(398,696,qs),
(420,696,o),
(460,681,o),
(486,641,o),
(486,602,q),
(514,602,l),
(514,641,o),
(540,681,o),
(580,696,o),
(602,696,qs),
(641,696,o),
(716,691,o),
(793,687,o),
(834,687,qs),
(917,687,o),
(974,747,o),
(974,806,qs),
(974,840,l)
);
}
);
vertWidth = 478;
width = 1000;
}
);
note = uniFE38;
unicode = 65080;
},
{
glyphname = bracketleft.full.vert;
lastChange = "2023-08-27 13:54:15 +0000";
layers = (
{
layerId = m01;
shapes = (
{
closed = 1;
nodes = (
(40,430,l),
(66,430,l),
(66,650,l),
(934,650,l),
(934,430,l),
(960,430,l),
(960,680,l),
(40,680,l)
);
}
);
vertWidth = 490;
width = 1000;
}
);
note = uniFE47;
unicode = 65095;
},
{
glyphname = bracketright.full.vert;
lastChange = "2023-08-27 13:54:22 +0000";
layers = (
{
layerId = m01;
shapes = (
{
closed = 1;
nodes = (
(40,840,l),
(66,840,l),
(66,620,l),
(934,620,l),
(934,840,l),
(960,840,l),
(960,590,l),
(40,590,l)
);
}
);
vertWidth = 490;
width = 1000;
}
);
note = uniFE48;
unicode = 65096;
},
{
glyphname = parenleft.full.vert;
lastChange = "2023-08-27 13:54:27 +0000";
layers = (
{
layerId = m01;
shapes = (
{
closed = 1;
nodes = (
(248,635,o),
(98,545,o),
(29,479,q),
(48,454,l),
(114,519,o),
(260,605,o),
(418,648,o),
(500,648,qs),
(583,648,o),
(740,605,o),
(887,519,o),
(952,454,q),
(971,479,l),
(903,545,o),
(752,635,o),
(589,680,o),
(500,680,qs),
(412,680,o)
);
}
);
vertWidth = 473;
width = 1000;
}
);
note = uniFE35;
unicode = 65077;
},
{
glyphname = parenright.full.vert;
lastChange = "2023-08-27 13:54:33 +0000";
layers = (
{
layerId = m01;
shapes = (
{
closed = 1;
nodes = (
(752,652,o),
(903,742,o),
(971,808,q),
(952,833,l),
(887,768,o),
(740,682,o),
(583,639,o),
(500,639,qs),
(418,639,o),
(260,682,o),
(114,768,o),
(48,833,q),
(29,808,l),
(98,742,o),
(248,652,o),
(412,607,o),
(500,607,qs),
(589,607,o)
);
}
